{
  "source": "C:\\Users\\Peter\\Desktop\\stuff\\MIUN\\quantitative_research\\video_compression\\videos\\HEVC_CLASS_B\\BasketballDrive_1920x1080_50.y4m",
  "output": "C:\\Users\\Peter\\Desktop\\stuff\\MIUN\\quantitative_research\\video_compression\\compressed_videos\\HEVC_CLASS_B\\h264\\2\\BasketballDrive_1920x1080_50_h264.mp4",
  "codec": "h264",
  "ok": "Input #0, yuv4mpegpipe, from 'C:\\Users\\Peter\\Desktop\\stuff\\MIUN\\quantitative_research\\video_compression\\videos\\HEVC_CLASS_B\\BasketballDrive_1920x1080_50.y4m':\n  Duration: 00:00:10.00, start: 0.000000, bitrate: 1244162 kb/s\n  Stream #0:0: Video: rawvideo (I420 / 0x30323449), yuv420p(progressive), 1920x1080, 50 fps, 50 tbr, 50 tbn\n[out#0/mp4 @ 000001fdfecfa540] Codec AVOption b:a (set bitrate (in bits/s)) has not been used for any stream. The most likely reason is either wrong type (e.g. a video option with no video streams) or that it is a private option of some decoder which was not actually used for any stream.\nStream mapping:\n  Stream #0:0 -> #0:0 (rawvideo (native) -> h264 (libx264))\nPress [q] to stop, [?] for help\n[libx264 @ 000001fdfecfc940] using cpu capabilities: MMX2 SSE2Fast SSSE3 SSE4.2 AVX FMA3 BMI2 AVX2\n[libx264 @ 000001fdfecfc940] profile High, level 5.0, 4:2:0, 8-bit\n[libx264 @ 000001fdfecfc940] 264 - core 165 r3222 b35605a - H.264/MPEG-4 AVC codec - Copyleft 2003-2025 - http://www.videolan.org/x264.html - options: cabac=1 ref=5 deblock=1:0:0 analyse=0x3:0x113 me=hex subme=8 psy=1 psy_rd=1.00:0.00 mixed_ref=1 me_range=16 chroma_me=1 trellis=2 8x8dct=1 cqm=0 deadzone=21,11 fast_pskip=1 chroma_qp_offset=-2 threads=18 lookahead_threads=3 sliced_threads=0 nr=0 decimate=1 interlaced=0 bluray_compat=0 constrained_intra=0 bframes=3 b_pyramid=2 b_adapt=1 b_bias=0 direct=3 weightb=1 open_gop=0 weightp=2 keyint=250 keyint_min=25 scenecut=40 intra_refresh=0 rc_lookahead=50 rc=cbr mbtree=1 bitrate=2000 ratetol=1.0 qcomp=0.60 qpmin=0 qpmax=69 qpstep=4 vbv_maxrate=2000 vbv_bufsize=2000 nal_hrd=none filler=0 ip_ratio=1.40 aq=1:1.00\nOutput #0, mp4, to 'C:\\Users\\Peter\\Desktop\\stuff\\MIUN\\quantitative_research\\video_compression\\compressed_videos\\HEVC_CLASS_B\\h264\\2\\BasketballDrive_1920x1080_50_h264.mp4':\n  Metadata:\n    encoder         : Lavf62.3.100\n  Stream #0:0: Video: h264 (avc1 / 0x31637661), yuv420p(tv, progressive), 1920x1080, q=2-31, 2000 kb/s, 50 fps, 12800 tbn\n    Metadata:\n      encoder         : Lavc62.11.100 libx264\n    Side data:\n      cpb: bitrate max/min/avg: 2000000/0/2000000 buffer size: 2000000 vbv_delay: N/A\nframe=    0 fps=0.0 q=0.0 size=       0KiB time=N/A bitrate=N/A speed=N/A elapsed=0:00:00.53    \nframe=    0 fps=0.0 q=0.0 size=       0KiB time=N/A bitrate=N/A speed=N/A elapsed=0:00:01.46    \nframe=    0 fps=0.0 q=0.0 size=       0KiB time=N/A bitrate=N/A speed=N/A elapsed=0:00:02.03    \nframe=   18 fps=6.3 q=44.0 size=       0KiB time=00:00:00.32 bitrate=   1.2kbits/s speed=0.112x elapsed=0:00:02.84    \nframe=   39 fps= 11 q=44.0 size=       0KiB time=00:00:00.60 bitrate=   0.6kbits/s speed=0.165x elapsed=0:00:03.62    \nframe=   53 fps= 12 q=44.0 size=       0KiB time=00:00:01.00 bitrate=   0.4kbits/s speed=0.226x elapsed=0:00:04.42    \nframe=   69 fps= 13 q=44.0 size=     256KiB time=00:00:01.34 bitrate=1565.3kbits/s speed=0.249x elapsed=0:00:05.38    \nframe=   84 fps= 14 q=44.0 size=     256KiB time=00:00:01.56 bitrate=1344.6kbits/s speed=0.256x elapsed=0:00:06.10    \nframe=   86 fps= 13 q=44.0 size=     256KiB time=00:00:01.68 bitrate=1248.5kbits/s speed=0.248x elapsed=0:00:06.76    \nframe=   96 fps= 13 q=44.0 size=     256KiB time=00:00:01.88 bitrate=1115.7kbits/s speed=0.255x elapsed=0:00:07.37    \nframe=  105 fps= 13 q=44.0 size=     256KiB time=00:00:02.06 bitrate=1018.2kbits/s speed=0.257x elapsed=0:00:08.00    \nframe=  124 fps= 14 q=45.0 size=     512KiB time=00:00:02.36 bitrate=1777.4kbits/s speed=0.271x elapsed=0:00:08.70    \nframe=  133 fps= 14 q=45.0 size=     512KiB time=00:00:02.62 bitrate=1601.0kbits/s speed=0.279x elapsed=0:00:09.38    \nframe=  144 fps= 15 q=45.0 size=     512KiB time=00:00:02.84 bitrate=1477.0kbits/s speed=0.287x elapsed=0:00:09.89    \nframe=  156 fps= 15 q=45.0 size=     512KiB time=00:00:03.08 bitrate=1361.9kbits/s speed=0.295x elapsed=0:00:10.43    \nframe=  165 fps= 15 q=44.0 size=     768KiB time=00:00:03.26 bitrate=1930.0kbits/s speed=0.296x elapsed=0:00:11.00    \nframe=  176 fps= 15 q=43.0 size=     768KiB time=00:00:03.48 bitrate=1808.0kbits/s speed=0.302x elapsed=0:00:11.51    \nframe=  186 fps= 15 q=43.0 size=     768KiB time=00:00:03.68 bitrate=1709.7kbits/s speed=0.305x elapsed=0:00:12.06    \nframe=  202 fps= 16 q=43.0 size=     768KiB time=00:00:03.96 bitrate=1588.8kbits/s speed=0.315x elapsed=0:00:12.58    \nframe=  220 fps= 17 q=43.0 size=    1024KiB time=00:00:04.36 bitrate=1924.1kbits/s speed=0.329x elapsed=0:00:13.23    \nframe=  228 fps= 17 q=43.0 size=    1024KiB time=00:00:04.52 bitrate=1856.0kbits/s speed=0.329x elapsed=0:00:13.75    \nframe=  233 fps= 16 q=43.0 size=    1024KiB time=00:00:04.62 bitrate=1815.8kbits/s speed=0.323x elapsed=0:00:14.29    \nframe=  238 fps= 16 q=43.0 size=    1024KiB time=00:00:04.72 bitrate=1777.3kbits/s speed=0.316x elapsed=0:00:14.92    \nframe=  258 fps= 17 q=42.0 size=    1024KiB time=00:00:05.12 bitrate=1638.5kbits/s speed=0.328x elapsed=0:00:15.60    \nframe=  272 fps= 17 q=43.0 size=    1280KiB time=00:00:05.40 bitrate=1941.9kbits/s speed=0.33x elapsed=0:00:16.34    \nframe=  280 fps= 16 q=43.0 size=    1280KiB time=00:00:05.56 bitrate=1886.0kbits/s speed=0.325x elapsed=0:00:17.12    \nframe=  295 fps= 17 q=43.0 size=    1280KiB time=00:00:05.86 bitrate=1789.4kbits/s speed=0.33x elapsed=0:00:17.78    \nframe=  307 fps= 17 q=43.0 size=    1280KiB time=00:00:06.10 bitrate=1719.0kbits/s speed=0.333x elapsed=0:00:18.30    \nframe=  318 fps= 17 q=42.0 size=    1280KiB time=00:00:06.32 bitrate=1659.2kbits/s speed=0.336x elapsed=0:00:18.81    \nframe=  330 fps= 17 q=43.0 size=    1536KiB time=00:00:06.56 bitrate=1918.2kbits/s speed=0.34x elapsed=0:00:19.32    \nframe=  340 fps= 17 q=43.0 size=    1536KiB time=00:00:06.76 bitrate=1861.4kbits/s speed=0.341x elapsed=0:00:19.84    \nframe=  350 fps= 17 q=43.0 size=    1536KiB time=00:00:06.96 bitrate=1807.9kbits/s speed=0.342x elapsed=0:00:20.36    \nframe=  359 fps= 17 q=43.0 size=    1536KiB time=00:00:07.14 bitrate=1762.4kbits/s speed=0.342x elapsed=0:00:20.88    \nframe=  372 fps= 17 q=43.0 size=    1536KiB time=00:00:07.40 bitrate=1700.4kbits/s speed=0.346x elapsed=0:00:21.39    \nframe=  380 fps= 17 q=42.0 size=    1792KiB time=00:00:07.56 bitrate=1941.9kbits/s speed=0.345x elapsed=0:00:21.89    \nframe=  390 fps= 17 q=42.0 size=    1792KiB time=00:00:07.76 bitrate=1891.8kbits/s speed=0.346x elapsed=0:00:22.42    \nframe=  400 fps= 17 q=43.0 size=    1792KiB time=00:00:07.96 bitrate=1844.3kbits/s speed=0.347x elapsed=0:00:22.93    \nframe=  413 fps= 18 q=43.0 size=    1792KiB time=00:00:08.22 bitrate=1785.9kbits/s speed=0.35x elapsed=0:00:23.45    \nframe=  425 fps= 18 q=43.0 size=    1792KiB time=00:00:08.46 bitrate=1735.3kbits/s speed=0.353x elapsed=0:00:23.97    \nframe=  434 fps= 18 q=43.0 size=    2048KiB time=00:00:08.64 bitrate=1941.9kbits/s speed=0.353x elapsed=0:00:24.48    \nframe=  443 fps= 18 q=44.0 size=    2048KiB time=00:00:08.82 bitrate=1902.2kbits/s speed=0.353x elapsed=0:00:24.99    \nframe=  452 fps= 18 q=43.0 size=    2048KiB time=00:00:09.00 bitrate=1864.2kbits/s speed=0.353x elapsed=0:00:25.51    \nframe=  463 fps= 18 q=44.0 size=    2048KiB time=00:00:09.22 bitrate=1819.7kbits/s speed=0.354x elapsed=0:00:26.03    \nframe=  471 fps= 18 q=43.0 size=    2048KiB time=00:00:09.38 bitrate=1788.7kbits/s speed=0.353x elapsed=0:00:26.54    \nframe=  489 fps= 18 q=-1.0 size=    2304KiB time=00:00:09.74 bitrate=1937.9kbits/s speed=0.36x elapsed=0:00:27.06    \n[mp4 @ 000001fdfecfb680] Starting second pass: moving the moov atom to the beginning of the file\n[out#0/mp4 @ 000001fdfecfa540] video:2386KiB audio:0KiB subtitle:0KiB other streams:0KiB global headers:0KiB muxing overhead: 0.281853%\nframe=  500 fps= 18 q=-1.0 Lsize=    2393KiB time=00:00:09.96 bitrate=1968.2kbits/s speed=0.361x elapsed=0:00:27.58    \n[libx264 @ 000001fdfecfc940] frame I:2     Avg QP:38.42  size: 23564\n[libx264 @ 000001fdfecfc940] frame P:126   Avg QP:41.88  size:  8894\n[libx264 @ 000001fdfecfc940] frame B:372   Avg QP:44.94  size:  3427\n[libx264 @ 000001fdfecfc940] consecutive B-frames:  0.8%  0.0%  0.0% 99.2%\n[libx264 @ 000001fdfecfc940] mb I  I16..4: 57.1% 39.8%  3.1%\n[libx264 @ 000001fdfecfc940] mb P  I16..4:  5.6%  4.1%  0.1%  P16..4: 26.1%  1.7%  1.5%  0.0%  0.0%    skip:60.8%\n[libx264 @ 000001fdfecfc940] mb B  I16..4:  0.1%  0.2%  0.0%  B16..8: 36.1%  0.7%  0.0%  direct: 0.3%  skip:62.6%  L0:36.4% L1:63.2% BI: 0.4%\n[libx264 @ 000001fdfecfc940] 8x8 transform intra:42.3% inter:90.8%\n[libx264 @ 000001fdfecfc940] direct mvs  spatial:97.3% temporal:2.7%\n[libx264 @ 000001fdfecfc940] coded y,uvDC,uvAC intra: 15.7% 36.6% 11.4% inter: 1.1% 3.2% 0.1%\n[libx264 @ 000001fdfecfc940] i16 v,h,dc,p: 34% 28%  5% 33%\n[libx264 @ 000001fdfecfc940] i8 v,h,dc,ddl,ddr,vr,hd,vl,hu: 10%  7% 12% 10% 15% 14% 12% 11%  8%\n[libx264 @ 000001fdfecfc940] i4 v,h,dc,ddl,ddr,vr,hd,vl,hu: 13% 16% 10%  8% 14% 13%  9%  8% 10%\n[libx264 @ 000001fdfecfc940] i8c dc,h,v,p: 53% 22% 16%  9%\n[libx264 @ 000001fdfecfc940] Weighted P-Frames: Y:0.0% UV:0.0%\n[libx264 @ 000001fdfecfc940] ref P L0: 56.5% 10.1% 20.6%  5.9%  7.0%\n[libx264 @ 000001fdfecfc940] ref B L0: 88.7%  8.4%  2.3%  0.7%\n[libx264 @ 000001fdfecfc940] ref B L1: 96.5%  3.5%\n[libx264 @ 000001fdfecfc940] kb/s:1954.17\n",
  "seconds": 27.909091472625732,
  "probe_out": {}
}